<svg xmlns="http://www.w3.org/2000/svg" xmlns:xlink="http://www.w3.org/1999/xlink" width="170" zoomAndPan="magnify" viewBox="0 0 127.5 37.5" height="50" preserveAspectRatio="xMidYMid meet" version="1.0"><defs><g/></defs><g fill="#413f3d" fill-opacity="1"><g transform="translate(6.673851, 13.825086)"><g><path d="M 3.828125 0.171875 C 2.691406 0.171875 1.816406 -0.175781 1.203125 -0.875 C 0.585938 -1.570312 0.28125 -2.554688 0.28125 -3.828125 C 0.28125 -4.640625 0.425781 -5.335938 0.71875 -5.921875 C 1.019531 -6.515625 1.453125 -6.960938 2.015625 -7.265625 C 2.578125 -7.578125 3.242188 -7.734375 4.015625 -7.734375 C 4.890625 -7.734375 5.789062 -7.535156 6.71875 -7.140625 C 6.644531 -6.472656 6.535156 -5.726562 6.390625 -4.90625 L 5.53125 -4.859375 L 4.765625 -5.984375 C 4.429688 -6.085938 4.066406 -6.140625 3.671875 -6.140625 C 3.367188 -6.140625 3.082031 -6.113281 2.8125 -6.0625 C 2.695312 -5.820312 2.601562 -5.507812 2.53125 -5.125 C 2.457031 -4.75 2.421875 -4.367188 2.421875 -3.984375 C 2.421875 -3.148438 2.570312 -2.53125 2.875 -2.125 C 3.175781 -1.726562 3.65625 -1.519531 4.3125 -1.5 C 4.570312 -1.5 4.898438 -1.535156 5.296875 -1.609375 C 5.703125 -1.691406 6.097656 -1.800781 6.484375 -1.9375 L 6.828125 -0.703125 C 6.441406 -0.441406 5.972656 -0.226562 5.421875 -0.0625 C 4.867188 0.09375 4.335938 0.171875 3.828125 0.171875 Z M 3.828125 0.171875 "/></g></g></g><g fill="#413f3d" fill-opacity="1"><g transform="translate(13.896815, 13.825086)"><g><path d="M 0.1875 -1 L 0.53125 -1.21875 L 3.15625 -7.578125 L 5.0625 -7.75 L 7.3125 -1.6875 C 7.382812 -1.488281 7.4375 -1.359375 7.46875 -1.296875 C 7.5 -1.242188 7.554688 -1.164062 7.640625 -1.0625 L 7.84375 -0.796875 L 7.78125 0 L 4.625 0 L 4.5 -1.0625 L 5.296875 -1.265625 L 4.9375 -2.40625 L 2.65625 -2.375 L 2.421875 -1.65625 C 2.390625 -1.59375 2.375 -1.539062 2.375 -1.5 C 2.375 -1.445312 2.382812 -1.40625 2.40625 -1.375 C 2.425781 -1.351562 2.457031 -1.332031 2.5 -1.3125 L 3.28125 -0.984375 L 3.171875 0 L 0.21875 0 Z M 3.859375 -5.828125 L 3.109375 -3.671875 L 4.5625 -3.609375 Z M 3.859375 -5.828125 "/></g></g></g><g fill="#413f3d" fill-opacity="1"><g transform="translate(21.894876, 13.825086)"><g><path d="M 0.421875 -1.140625 L 1.234375 -1.375 L 1.234375 -5.65625 C 1.234375 -5.84375 1.21875 -5.96875 1.1875 -6.03125 C 1.15625 -6.101562 1.078125 -6.164062 0.953125 -6.21875 L 0.375 -6.53125 L 0.4375 -7.453125 C 1.007812 -7.535156 1.546875 -7.597656 2.046875 -7.640625 C 2.554688 -7.679688 3.109375 -7.703125 3.703125 -7.703125 C 4.503906 -7.703125 5.148438 -7.613281 5.640625 -7.4375 C 6.128906 -7.269531 6.488281 -7.003906 6.71875 -6.640625 C 6.945312 -6.273438 7.0625 -5.785156 7.0625 -5.171875 C 7.0625 -4.390625 6.78125 -3.773438 6.21875 -3.328125 C 5.65625 -2.878906 4.878906 -2.65625 3.890625 -2.65625 L 3.28125 -2.671875 L 3.28125 -1.8125 C 3.28125 -1.632812 3.289062 -1.519531 3.3125 -1.46875 C 3.34375 -1.414062 3.410156 -1.363281 3.515625 -1.3125 L 4.203125 -0.90625 L 4.15625 0 L 0.46875 0 Z M 4 -3.890625 C 4.40625 -3.890625 4.703125 -3.929688 4.890625 -4.015625 C 4.972656 -4.390625 5.015625 -4.773438 5.015625 -5.171875 C 5.015625 -5.617188 4.925781 -5.9375 4.75 -6.125 C 4.582031 -6.3125 4.3125 -6.40625 3.9375 -6.40625 C 3.8125 -6.40625 3.59375 -6.390625 3.28125 -6.359375 L 3.28125 -3.96875 C 3.476562 -3.914062 3.71875 -3.890625 4 -3.890625 Z M 4 -3.890625 "/></g></g></g><g fill="#413f3d" fill-opacity="1"><g transform="translate(29.162774, 13.825086)"><g><path d="M 2.8125 0.140625 C 1.988281 0.140625 1.15625 0.0078125 0.3125 -0.25 C 0.351562 -0.988281 0.414062 -1.675781 0.5 -2.3125 L 1.359375 -2.484375 L 1.921875 -1.53125 C 2.367188 -1.375 2.765625 -1.296875 3.109375 -1.296875 C 3.234375 -1.296875 3.488281 -1.328125 3.875 -1.390625 C 3.882812 -1.546875 3.890625 -1.648438 3.890625 -1.703125 C 3.890625 -1.878906 3.859375 -2.015625 3.796875 -2.109375 C 3.742188 -2.203125 3.613281 -2.304688 3.40625 -2.421875 C 3.207031 -2.535156 2.847656 -2.707031 2.328125 -2.9375 C 1.679688 -3.257812 1.210938 -3.597656 0.921875 -3.953125 C 0.640625 -4.316406 0.5 -4.75 0.5 -5.25 C 0.5 -6.019531 0.757812 -6.617188 1.28125 -7.046875 C 1.8125 -7.484375 2.535156 -7.703125 3.453125 -7.703125 C 3.890625 -7.703125 4.328125 -7.660156 4.765625 -7.578125 C 5.203125 -7.492188 5.585938 -7.375 5.921875 -7.21875 C 5.898438 -6.800781 5.863281 -6.28125 5.8125 -5.65625 L 5.78125 -5.171875 L 4.96875 -5.0625 L 4.109375 -6.140625 C 3.835938 -6.222656 3.5 -6.265625 3.09375 -6.265625 C 2.84375 -6.265625 2.65625 -6.242188 2.53125 -6.203125 C 2.488281 -6.054688 2.46875 -5.941406 2.46875 -5.859375 C 2.46875 -5.691406 2.507812 -5.546875 2.59375 -5.421875 C 2.675781 -5.296875 2.820312 -5.164062 3.03125 -5.03125 C 3.238281 -4.90625 3.550781 -4.742188 3.96875 -4.546875 C 4.5625 -4.265625 5.007812 -4.015625 5.3125 -3.796875 C 5.625 -3.578125 5.84375 -3.347656 5.96875 -3.109375 C 6.09375 -2.878906 6.15625 -2.597656 6.15625 -2.265625 C 6.15625 -1.515625 5.859375 -0.925781 5.265625 -0.5 C 4.671875 -0.0703125 3.851562 0.140625 2.8125 0.140625 Z M 2.8125 0.140625 "/></g></g></g><g fill="#413f3d" fill-opacity="1"><g transform="translate(35.576944, 13.825086)"><g><path d="M 1.9375 -1.09375 L 2.90625 -1.375 L 2.90625 -6.234375 L 1.96875 -6.15625 L 1.140625 -5.15625 L 0.3125 -5.21875 C 0.3125 -5.84375 0.34375 -6.628906 0.40625 -7.578125 L 7.4375 -7.578125 C 7.5 -6.628906 7.53125 -5.84375 7.53125 -5.21875 L 6.71875 -5.15625 L 5.875 -6.15625 L 4.953125 -6.234375 L 4.953125 -1.8125 C 4.953125 -1.632812 4.960938 -1.519531 4.984375 -1.46875 C 5.003906 -1.414062 5.066406 -1.363281 5.171875 -1.3125 L 5.875 -0.90625 L 5.828125 0 L 1.984375 0 Z M 1.9375 -1.09375 "/></g></g></g><g fill="#413f3d" fill-opacity="1"><g transform="translate(43.428966, 13.825086)"><g><path d="M 3.984375 0.15625 C 2.734375 0.15625 1.800781 -0.15625 1.1875 -0.78125 C 0.582031 -1.414062 0.28125 -2.375 0.28125 -3.65625 C 0.28125 -4.476562 0.429688 -5.195312 0.734375 -5.8125 C 1.046875 -6.425781 1.484375 -6.894531 2.046875 -7.21875 C 2.617188 -7.550781 3.300781 -7.71875 4.09375 -7.71875 C 6.59375 -7.71875 7.84375 -6.441406 7.84375 -3.890625 C 7.84375 -3.046875 7.6875 -2.320312 7.375 -1.71875 C 7.070312 -1.113281 6.628906 -0.648438 6.046875 -0.328125 C 5.460938 -0.00390625 4.773438 0.15625 3.984375 0.15625 Z M 4.21875 -1.390625 C 4.644531 -1.390625 5.050781 -1.5 5.4375 -1.71875 C 5.519531 -1.945312 5.582031 -2.234375 5.625 -2.578125 C 5.675781 -2.929688 5.703125 -3.28125 5.703125 -3.625 C 5.703125 -4.445312 5.546875 -5.070312 5.234375 -5.5 C 4.921875 -5.925781 4.460938 -6.140625 3.859375 -6.140625 C 3.429688 -6.140625 3.019531 -6.0625 2.625 -5.90625 C 2.539062 -5.769531 2.476562 -5.535156 2.4375 -5.203125 C 2.394531 -4.878906 2.375 -4.507812 2.375 -4.09375 C 2.375 -3.21875 2.53125 -2.546875 2.84375 -2.078125 C 3.15625 -1.617188 3.613281 -1.390625 4.21875 -1.390625 Z M 4.21875 -1.390625 "/></g></g></g><g fill="#413f3d" fill-opacity="1"><g transform="translate(51.539358, 13.825086)"><g><path d="M 2.296875 -4.78125 L 2.5 -1.84375 C 2.5 -1.664062 2.515625 -1.550781 2.546875 -1.5 C 2.578125 -1.445312 2.644531 -1.394531 2.75 -1.34375 L 3.34375 -0.9375 L 3.296875 0 L 0.375 0 L 0.3125 -1.21875 L 0.921875 -1.375 L 0.96875 -5.796875 C 0.96875 -5.941406 0.957031 -6.039062 0.9375 -6.09375 C 0.914062 -6.144531 0.863281 -6.203125 0.78125 -6.265625 L 0.359375 -6.578125 L 0.4375 -7.578125 L 2.765625 -7.578125 L 6.15625 -3.21875 L 6 -5.734375 C 5.988281 -5.910156 5.96875 -6.023438 5.9375 -6.078125 C 5.90625 -6.128906 5.835938 -6.1875 5.734375 -6.25 L 5.15625 -6.625 L 5.1875 -7.578125 L 8.09375 -7.578125 L 8.140625 -6.421875 L 7.5625 -6.171875 L 7.515625 -0.09375 L 6.21875 0.328125 Z M 2.296875 -4.78125 "/></g></g></g><g fill="#413f3d" fill-opacity="1"><g transform="translate(59.941815, 13.825086)"><g><path d="M 0.296875 -1.140625 L 1.125 -1.375 L 1.125 -5.671875 C 1.125 -5.867188 1.109375 -6 1.078125 -6.0625 C 1.046875 -6.125 0.96875 -6.179688 0.84375 -6.234375 L 0.28125 -6.5625 L 0.3125 -7.578125 L 6.421875 -7.578125 C 6.472656 -6.785156 6.5 -6.015625 6.5 -5.265625 L 5.65625 -5.21875 L 4.859375 -6.203125 L 3.171875 -6.25 L 3.171875 -4.421875 L 5.5625 -4.625 L 5.5625 -2.890625 L 3.171875 -3.140625 L 3.171875 -1.34375 L 5.03125 -1.375 L 5.890625 -2.359375 L 6.734375 -2.296875 C 6.703125 -1.515625 6.644531 -0.75 6.5625 0 L 0.359375 0 Z M 0.296875 -1.140625 "/></g></g></g><g fill="#413f3d" fill-opacity="1"><g transform="translate(66.940118, 13.825086)"><g/></g></g><g fill="#413f3d" fill-opacity="1"><g transform="translate(69.254163, 13.825086)"><g><path d="M 0.421875 -1.140625 L 1.234375 -1.375 L 1.234375 -5.65625 C 1.234375 -5.84375 1.21875 -5.96875 1.1875 -6.03125 C 1.15625 -6.101562 1.078125 -6.164062 0.953125 -6.21875 L 0.375 -6.53125 L 0.4375 -7.453125 C 1.007812 -7.535156 1.546875 -7.597656 2.046875 -7.640625 C 2.554688 -7.679688 3.109375 -7.703125 3.703125 -7.703125 C 4.503906 -7.703125 5.148438 -7.613281 5.640625 -7.4375 C 6.128906 -7.269531 6.488281 -7.003906 6.71875 -6.640625 C 6.945312 -6.273438 7.0625 -5.785156 7.0625 -5.171875 C 7.0625 -4.390625 6.78125 -3.773438 6.21875 -3.328125 C 5.65625 -2.878906 4.878906 -2.65625 3.890625 -2.65625 L 3.28125 -2.671875 L 3.28125 -1.8125 C 3.28125 -1.632812 3.289062 -1.519531 3.3125 -1.46875 C 3.34375 -1.414062 3.410156 -1.363281 3.515625 -1.3125 L 4.203125 -0.90625 L 4.15625 0 L 0.46875 0 Z M 4 -3.890625 C 4.40625 -3.890625 4.703125 -3.929688 4.890625 -4.015625 C 4.972656 -4.390625 5.015625 -4.773438 5.015625 -5.171875 C 5.015625 -5.617188 4.925781 -5.9375 4.75 -6.125 C 4.582031 -6.3125 4.3125 -6.40625 3.9375 -6.40625 C 3.8125 -6.40625 3.59375 -6.390625 3.28125 -6.359375 L 3.28125 -3.96875 C 3.476562 -3.914062 3.71875 -3.890625 4 -3.890625 Z M 4 -3.890625 "/></g></g></g><g fill="#413f3d" fill-opacity="1"><g transform="translate(76.522061, 13.825086)"><g><path d="M 0.421875 -1.140625 L 1.234375 -1.375 L 1.234375 -5.65625 C 1.234375 -5.84375 1.21875 -5.96875 1.1875 -6.03125 C 1.15625 -6.101562 1.078125 -6.164062 0.953125 -6.21875 L 0.375 -6.53125 L 0.4375 -7.453125 C 1.5625 -7.617188 2.644531 -7.703125 3.6875 -7.703125 C 4.488281 -7.703125 5.132812 -7.617188 5.625 -7.453125 C 6.125 -7.296875 6.488281 -7.046875 6.71875 -6.703125 C 6.945312 -6.367188 7.0625 -5.921875 7.0625 -5.359375 C 7.0625 -4.890625 6.941406 -4.484375 6.703125 -4.140625 C 6.460938 -3.796875 6.125 -3.53125 5.6875 -3.34375 L 7.484375 -0.4375 L 7.46875 0 L 5.421875 0 L 3.765625 -3 L 3.265625 -3.015625 L 3.265625 -1.75 C 3.265625 -1.570312 3.273438 -1.457031 3.296875 -1.40625 C 3.328125 -1.363281 3.394531 -1.3125 3.5 -1.25 L 3.984375 -0.96875 L 3.9375 0 L 0.46875 0 Z M 3.984375 -4.265625 C 4.378906 -4.265625 4.671875 -4.300781 4.859375 -4.375 C 4.941406 -4.644531 4.984375 -4.96875 4.984375 -5.34375 C 4.984375 -5.71875 4.898438 -5.984375 4.734375 -6.140625 C 4.578125 -6.296875 4.3125 -6.375 3.9375 -6.375 C 3.726562 -6.375 3.515625 -6.363281 3.296875 -6.34375 L 3.296875 -4.34375 C 3.484375 -4.289062 3.710938 -4.265625 3.984375 -4.265625 Z M 3.984375 -4.265625 "/></g></g></g><g fill="#413f3d" fill-opacity="1"><g transform="translate(84.093253, 13.825086)"><g><path d="M 3.984375 0.15625 C 2.734375 0.15625 1.800781 -0.15625 1.1875 -0.78125 C 0.582031 -1.414062 0.28125 -2.375 0.28125 -3.65625 C 0.28125 -4.476562 0.429688 -5.195312 0.734375 -5.8125 C 1.046875 -6.425781 1.484375 -6.894531 2.046875 -7.21875 C 2.617188 -7.550781 3.300781 -7.71875 4.09375 -7.71875 C 6.59375 -7.71875 7.84375 -6.441406 7.84375 -3.890625 C 7.84375 -3.046875 7.6875 -2.320312 7.375 -1.71875 C 7.070312 -1.113281 6.628906 -0.648438 6.046875 -0.328125 C 5.460938 -0.00390625 4.773438 0.15625 3.984375 0.15625 Z M 4.21875 -1.390625 C 4.644531 -1.390625 5.050781 -1.5 5.4375 -1.71875 C 5.519531 -1.945312 5.582031 -2.234375 5.625 -2.578125 C 5.675781 -2.929688 5.703125 -3.28125 5.703125 -3.625 C 5.703125 -4.445312 5.546875 -5.070312 5.234375 -5.5 C 4.921875 -5.925781 4.460938 -6.140625 3.859375 -6.140625 C 3.429688 -6.140625 3.019531 -6.0625 2.625 -5.90625 C 2.539062 -5.769531 2.476562 -5.535156 2.4375 -5.203125 C 2.394531 -4.878906 2.375 -4.507812 2.375 -4.09375 C 2.375 -3.21875 2.53125 -2.546875 2.84375 -2.078125 C 3.15625 -1.617188 3.613281 -1.390625 4.21875 -1.390625 Z M 4.21875 -1.390625 "/></g></g></g><g fill="#413f3d" fill-opacity="1"><g transform="translate(92.203644, 13.825086)"><g><path d="M 1.9375 1.359375 C 1.507812 1.128906 1.1875 0.9375 0.96875 0.78125 C 0.757812 0.625 0.507812 0.390625 0.21875 0.078125 L 1.140625 -1.015625 L 1.140625 -5.671875 C 1.140625 -5.867188 1.125 -6 1.09375 -6.0625 C 1.0625 -6.125 0.984375 -6.179688 0.859375 -6.234375 L 0.28125 -6.578125 L 0.328125 -7.578125 L 3.9375 -7.578125 L 3.984375 -6.421875 L 3.171875 -6.203125 L 3.171875 -2.609375 C 3.171875 -1.816406 3.101562 -1.164062 2.96875 -0.65625 C 2.84375 -0.15625 2.617188 0.347656 2.296875 0.859375 Z M 1.9375 1.359375 "/></g></g></g><g fill="#413f3d" fill-opacity="1"><g transform="translate(96.449807, 13.825086)"><g><path d="M 0.296875 -1.140625 L 1.125 -1.375 L 1.125 -5.671875 C 1.125 -5.867188 1.109375 -6 1.078125 -6.0625 C 1.046875 -6.125 0.96875 -6.179688 0.84375 -6.234375 L 0.28125 -6.5625 L 0.3125 -7.578125 L 6.421875 -7.578125 C 6.472656 -6.785156 6.5 -6.015625 6.5 -5.265625 L 5.65625 -5.21875 L 4.859375 -6.203125 L 3.171875 -6.25 L 3.171875 -4.421875 L 5.5625 -4.625 L 5.5625 -2.890625 L 3.171875 -3.140625 L 3.171875 -1.34375 L 5.03125 -1.375 L 5.890625 -2.359375 L 6.734375 -2.296875 C 6.703125 -1.515625 6.644531 -0.75 6.5625 0 L 0.359375 0 Z M 0.296875 -1.140625 "/></g></g></g><g fill="#413f3d" fill-opacity="1"><g transform="translate(103.44811, 13.825086)"><g><path d="M 3.828125 0.171875 C 2.691406 0.171875 1.816406 -0.175781 1.203125 -0.875 C 0.585938 -1.570312 0.28125 -2.554688 0.28125 -3.828125 C 0.28125 -4.640625 0.425781 -5.335938 0.71875 -5.921875 C 1.019531 -6.515625 1.453125 -6.960938 2.015625 -7.265625 C 2.578125 -7.578125 3.242188 -7.734375 4.015625 -7.734375 C 4.890625 -7.734375 5.789062 -7.535156 6.71875 -7.140625 C 6.644531 -6.472656 6.535156 -5.726562 6.390625 -4.90625 L 5.53125 -4.859375 L 4.765625 -5.984375 C 4.429688 -6.085938 4.066406 -6.140625 3.671875 -6.140625 C 3.367188 -6.140625 3.082031 -6.113281 2.8125 -6.0625 C 2.695312 -5.820312 2.601562 -5.507812 2.53125 -5.125 C 2.457031 -4.75 2.421875 -4.367188 2.421875 -3.984375 C 2.421875 -3.148438 2.570312 -2.53125 2.875 -2.125 C 3.175781 -1.726562 3.65625 -1.519531 4.3125 -1.5 C 4.570312 -1.5 4.898438 -1.535156 5.296875 -1.609375 C 5.703125 -1.691406 6.097656 -1.800781 6.484375 -1.9375 L 6.828125 -0.703125 C 6.441406 -0.441406 5.972656 -0.226562 5.421875 -0.0625 C 4.867188 0.09375 4.335938 0.171875 3.828125 0.171875 Z M 3.828125 0.171875 "/></g></g></g><g fill="#413f3d" fill-opacity="1"><g transform="translate(110.671074, 13.825086)"><g><path d="M 1.9375 -1.09375 L 2.90625 -1.375 L 2.90625 -6.234375 L 1.96875 -6.15625 L 1.140625 -5.15625 L 0.3125 -5.21875 C 0.3125 -5.84375 0.34375 -6.628906 0.40625 -7.578125 L 7.4375 -7.578125 C 7.5 -6.628906 7.53125 -5.84375 7.53125 -5.21875 L 6.71875 -5.15625 L 5.875 -6.15625 L 4.953125 -6.234375 L 4.953125 -1.8125 C 4.953125 -1.632812 4.960938 -1.519531 4.984375 -1.46875 C 5.003906 -1.414062 5.066406 -1.363281 5.171875 -1.3125 L 5.875 -0.90625 L 5.828125 0 L 1.984375 0 Z M 1.9375 -1.09375 "/></g></g></g><g fill="#413f3d" fill-opacity="1"><g transform="translate(118.514786, 13.825086)"><g/></g></g><g fill="#413f3d" fill-opacity="1"><g transform="translate(21.935259, 29.55162)"><g><path d="M 2.5625 -4.96875 L 2.3125 -1.640625 L 2.3125 -1.59375 C 2.3125 -1.445312 2.363281 -1.351562 2.46875 -1.3125 L 3.171875 -1.015625 L 3.0625 0 L 0.265625 0 L 0.140625 -1 L 0.65625 -1.3125 L 1.296875 -5.65625 C 1.304688 -5.707031 1.3125 -5.769531 1.3125 -5.84375 C 1.3125 -5.9375 1.289062 -6.003906 1.25 -6.046875 C 1.207031 -6.085938 1.128906 -6.144531 1.015625 -6.21875 L 0.5 -6.5 L 0.578125 -7.578125 L 3.796875 -7.578125 L 5.40625 -2.34375 L 7 -7.578125 L 10.015625 -7.578125 L 10.046875 -6.390625 L 9.328125 -6.21875 L 9.9375 -1.8125 C 9.957031 -1.65625 9.988281 -1.535156 10.03125 -1.453125 C 10.070312 -1.378906 10.171875 -1.25 10.328125 -1.0625 L 10.5625 -0.75 L 10.5 0 L 7.140625 0 L 7.046875 -1.03125 L 7.96875 -1.265625 L 7.578125 -5.03125 L 6.140625 0.046875 L 4.21875 0.21875 Z M 2.5625 -4.96875 "/></g></g></g><g fill="#413f3d" fill-opacity="1"><g transform="translate(32.62929, 29.55162)"><g><path d="M 0.1875 -1 L 0.53125 -1.21875 L 3.15625 -7.578125 L 5.0625 -7.75 L 7.3125 -1.6875 C 7.382812 -1.488281 7.4375 -1.359375 7.46875 -1.296875 C 7.5 -1.242188 7.554688 -1.164062 7.640625 -1.0625 L 7.84375 -0.796875 L 7.78125 0 L 4.625 0 L 4.5 -1.0625 L 5.296875 -1.265625 L 4.9375 -2.40625 L 2.65625 -2.375 L 2.421875 -1.65625 C 2.390625 -1.59375 2.375 -1.539062 2.375 -1.5 C 2.375 -1.445312 2.382812 -1.40625 2.40625 -1.375 C 2.425781 -1.351562 2.457031 -1.332031 2.5 -1.3125 L 3.28125 -0.984375 L 3.171875 0 L 0.21875 0 Z M 3.859375 -5.828125 L 3.109375 -3.671875 L 4.5625 -3.609375 Z M 3.859375 -5.828125 "/></g></g></g><g fill="#413f3d" fill-opacity="1"><g transform="translate(40.62735, 29.55162)"><g><path d="M 2.296875 -4.78125 L 2.5 -1.84375 C 2.5 -1.664062 2.515625 -1.550781 2.546875 -1.5 C 2.578125 -1.445312 2.644531 -1.394531 2.75 -1.34375 L 3.34375 -0.9375 L 3.296875 0 L 0.375 0 L 0.3125 -1.21875 L 0.921875 -1.375 L 0.96875 -5.796875 C 0.96875 -5.941406 0.957031 -6.039062 0.9375 -6.09375 C 0.914062 -6.144531 0.863281 -6.203125 0.78125 -6.265625 L 0.359375 -6.578125 L 0.4375 -7.578125 L 2.765625 -7.578125 L 6.15625 -3.21875 L 6 -5.734375 C 5.988281 -5.910156 5.96875 -6.023438 5.9375 -6.078125 C 5.90625 -6.128906 5.835938 -6.1875 5.734375 -6.25 L 5.15625 -6.625 L 5.1875 -7.578125 L 8.09375 -7.578125 L 8.140625 -6.421875 L 7.5625 -6.171875 L 7.515625 -0.09375 L 6.21875 0.328125 Z M 2.296875 -4.78125 "/></g></g></g><g fill="#413f3d" fill-opacity="1"><g transform="translate(49.029808, 29.55162)"><g><path d="M 0.1875 -1 L 0.53125 -1.21875 L 3.15625 -7.578125 L 5.0625 -7.75 L 7.3125 -1.6875 C 7.382812 -1.488281 7.4375 -1.359375 7.46875 -1.296875 C 7.5 -1.242188 7.554688 -1.164062 7.640625 -1.0625 L 7.84375 -0.796875 L 7.78125 0 L 4.625 0 L 4.5 -1.0625 L 5.296875 -1.265625 L 4.9375 -2.40625 L 2.65625 -2.375 L 2.421875 -1.65625 C 2.390625 -1.59375 2.375 -1.539062 2.375 -1.5 C 2.375 -1.445312 2.382812 -1.40625 2.40625 -1.375 C 2.425781 -1.351562 2.457031 -1.332031 2.5 -1.3125 L 3.28125 -0.984375 L 3.171875 0 L 0.21875 0 Z M 3.859375 -5.828125 L 3.109375 -3.671875 L 4.5625 -3.609375 Z M 3.859375 -5.828125 "/></g></g></g><g fill="#413f3d" fill-opacity="1"><g transform="translate(57.027868, 29.55162)"><g><path d="M 4.09375 0.140625 C 2.820312 0.140625 1.867188 -0.191406 1.234375 -0.859375 C 0.597656 -1.523438 0.28125 -2.515625 0.28125 -3.828125 C 0.28125 -4.628906 0.429688 -5.320312 0.734375 -5.90625 C 1.046875 -6.488281 1.492188 -6.929688 2.078125 -7.234375 C 2.660156 -7.546875 3.351562 -7.703125 4.15625 -7.703125 C 5.125 -7.703125 6.070312 -7.503906 7 -7.109375 C 6.925781 -6.390625 6.820312 -5.671875 6.6875 -4.953125 L 5.828125 -4.890625 L 5.125 -5.9375 C 4.75 -6.070312 4.285156 -6.140625 3.734375 -6.140625 C 3.472656 -6.140625 3.15625 -6.113281 2.78125 -6.0625 C 2.644531 -5.832031 2.539062 -5.53125 2.46875 -5.15625 C 2.394531 -4.78125 2.359375 -4.375 2.359375 -3.9375 C 2.359375 -3.082031 2.53125 -2.441406 2.875 -2.015625 C 3.21875 -1.585938 3.753906 -1.375 4.484375 -1.375 C 4.660156 -1.375 4.890625 -1.390625 5.171875 -1.421875 L 5.171875 -2.234375 C 5.171875 -2.378906 5.15625 -2.472656 5.125 -2.515625 C 5.101562 -2.566406 5.039062 -2.625 4.9375 -2.6875 L 4.515625 -2.90625 L 4.5625 -3.65625 L 4.8125 -3.703125 C 4.894531 -3.722656 5.1875 -3.769531 5.6875 -3.84375 C 6.195312 -3.925781 6.617188 -3.972656 6.953125 -3.984375 C 7.023438 -3.847656 7.082031 -3.6875 7.125 -3.5 L 7.125 -0.5625 C 6.6875 -0.34375 6.203125 -0.171875 5.671875 -0.046875 C 5.140625 0.078125 4.613281 0.140625 4.09375 0.140625 Z M 4.09375 0.140625 "/></g></g></g><g fill="#413f3d" fill-opacity="1"><g transform="translate(64.621531, 29.55162)"><g><path d="M 0.296875 -1.140625 L 1.125 -1.375 L 1.125 -5.671875 C 1.125 -5.867188 1.109375 -6 1.078125 -6.0625 C 1.046875 -6.125 0.96875 -6.179688 0.84375 -6.234375 L 0.28125 -6.5625 L 0.3125 -7.578125 L 6.421875 -7.578125 C 6.472656 -6.785156 6.5 -6.015625 6.5 -5.265625 L 5.65625 -5.21875 L 4.859375 -6.203125 L 3.171875 -6.25 L 3.171875 -4.421875 L 5.5625 -4.625 L 5.5625 -2.890625 L 3.171875 -3.140625 L 3.171875 -1.34375 L 5.03125 -1.375 L 5.890625 -2.359375 L 6.734375 -2.296875 C 6.703125 -1.515625 6.644531 -0.75 6.5625 0 L 0.359375 0 Z M 0.296875 -1.140625 "/></g></g></g><g fill="#413f3d" fill-opacity="1"><g transform="translate(71.619834, 29.55162)"><g><path d="M 2.5625 -4.96875 L 2.3125 -1.640625 L 2.3125 -1.59375 C 2.3125 -1.445312 2.363281 -1.351562 2.46875 -1.3125 L 3.171875 -1.015625 L 3.0625 0 L 0.265625 0 L 0.140625 -1 L 0.65625 -1.3125 L 1.296875 -5.65625 C 1.304688 -5.707031 1.3125 -5.769531 1.3125 -5.84375 C 1.3125 -5.9375 1.289062 -6.003906 1.25 -6.046875 C 1.207031 -6.085938 1.128906 -6.144531 1.015625 -6.21875 L 0.5 -6.5 L 0.578125 -7.578125 L 3.796875 -7.578125 L 5.40625 -2.34375 L 7 -7.578125 L 10.015625 -7.578125 L 10.046875 -6.390625 L 9.328125 -6.21875 L 9.9375 -1.8125 C 9.957031 -1.65625 9.988281 -1.535156 10.03125 -1.453125 C 10.070312 -1.378906 10.171875 -1.25 10.328125 -1.0625 L 10.5625 -0.75 L 10.5 0 L 7.140625 0 L 7.046875 -1.03125 L 7.96875 -1.265625 L 7.578125 -5.03125 L 6.140625 0.046875 L 4.21875 0.21875 Z M 2.5625 -4.96875 "/></g></g></g><g fill="#413f3d" fill-opacity="1"><g transform="translate(82.313865, 29.55162)"><g><path d="M 0.296875 -1.140625 L 1.125 -1.375 L 1.125 -5.671875 C 1.125 -5.867188 1.109375 -6 1.078125 -6.0625 C 1.046875 -6.125 0.96875 -6.179688 0.84375 -6.234375 L 0.28125 -6.5625 L 0.3125 -7.578125 L 6.421875 -7.578125 C 6.472656 -6.785156 6.5 -6.015625 6.5 -5.265625 L 5.65625 -5.21875 L 4.859375 -6.203125 L 3.171875 -6.25 L 3.171875 -4.421875 L 5.5625 -4.625 L 5.5625 -2.890625 L 3.171875 -3.140625 L 3.171875 -1.34375 L 5.03125 -1.375 L 5.890625 -2.359375 L 6.734375 -2.296875 C 6.703125 -1.515625 6.644531 -0.75 6.5625 0 L 0.359375 0 Z M 0.296875 -1.140625 "/></g></g></g><g fill="#413f3d" fill-opacity="1"><g transform="translate(89.312168, 29.55162)"><g><path d="M 2.296875 -4.78125 L 2.5 -1.84375 C 2.5 -1.664062 2.515625 -1.550781 2.546875 -1.5 C 2.578125 -1.445312 2.644531 -1.394531 2.75 -1.34375 L 3.34375 -0.9375 L 3.296875 0 L 0.375 0 L 0.3125 -1.21875 L 0.921875 -1.375 L 0.96875 -5.796875 C 0.96875 -5.941406 0.957031 -6.039062 0.9375 -6.09375 C 0.914062 -6.144531 0.863281 -6.203125 0.78125 -6.265625 L 0.359375 -6.578125 L 0.4375 -7.578125 L 2.765625 -7.578125 L 6.15625 -3.21875 L 6 -5.734375 C 5.988281 -5.910156 5.96875 -6.023438 5.9375 -6.078125 C 5.90625 -6.128906 5.835938 -6.1875 5.734375 -6.25 L 5.15625 -6.625 L 5.1875 -7.578125 L 8.09375 -7.578125 L 8.140625 -6.421875 L 7.5625 -6.171875 L 7.515625 -0.09375 L 6.21875 0.328125 Z M 2.296875 -4.78125 "/></g></g></g><g fill="#413f3d" fill-opacity="1"><g transform="translate(97.714626, 29.55162)"><g><path d="M 1.9375 -1.09375 L 2.90625 -1.375 L 2.90625 -6.234375 L 1.96875 -6.15625 L 1.140625 -5.15625 L 0.3125 -5.21875 C 0.3125 -5.84375 0.34375 -6.628906 0.40625 -7.578125 L 7.4375 -7.578125 C 7.5 -6.628906 7.53125 -5.84375 7.53125 -5.21875 L 6.71875 -5.15625 L 5.875 -6.15625 L 4.953125 -6.234375 L 4.953125 -1.8125 C 4.953125 -1.632812 4.960938 -1.519531 4.984375 -1.46875 C 5.003906 -1.414062 5.066406 -1.363281 5.171875 -1.3125 L 5.875 -0.90625 L 5.828125 0 L 1.984375 0 Z M 1.9375 -1.09375 "/></g></g></g></svg>