<svg xmlns="http://www.w3.org/2000/svg" xmlns:xlink="http://www.w3.org/1999/xlink" width="40" zoomAndPan="magnify" viewBox="0 0 30 30.000001" height="40" preserveAspectRatio="xMidYMid meet" version="1.0"><defs><clipPath id="8f0e1d47e4"><path d="M 10.976562 8.609375 L 18.960938 8.609375 L 18.960938 20.222656 L 10.976562 20.222656 Z M 10.976562 8.609375 " clip-rule="nonzero"/></clipPath></defs><g clip-path="url(#8f0e1d47e4)"><path fill="#000000" d="M 14.96875 10.019531 C 16.039062 10.019531 16.730469 11.132812 16.746094 12.515625 L 13.191406 12.515625 C 13.207031 11.132812 13.898438 10.019531 14.96875 10.019531 Z M 14.96875 8.640625 C 13.300781 8.640625 11.945312 10.390625 11.945312 12.550781 L 11.949219 12.605469 C 11.378906 12.808594 10.976562 13.347656 10.976562 13.980469 L 10.976562 17.417969 C 10.976562 18.949219 12.761719 20.1875 14.96875 20.1875 C 17.175781 20.1875 18.960938 18.949219 18.960938 17.417969 L 18.960938 13.980469 C 18.960938 13.347656 18.558594 12.808594 17.992188 12.605469 L 17.992188 12.550781 C 17.992188 10.390625 16.636719 8.640625 14.96875 8.640625 Z M 13.835938 15.765625 C 13.835938 15.148438 14.34375 14.644531 14.96875 14.644531 C 15.59375 14.644531 16.101562 15.148438 16.101562 15.765625 C 16.101562 16.160156 15.894531 16.507812 15.582031 16.707031 L 15.582031 17.738281 L 14.355469 17.738281 L 14.355469 16.707031 C 14.042969 16.507812 13.835938 16.160156 13.835938 15.765625 Z M 13.835938 15.765625 " fill-opacity="1" fill-rule="evenodd"/></g></svg>